# xmcd
#
# Track frame offsets:
#	150
#	15225
#	26550
#	40125
#	54900
#	69525
#	88950
#	101175
#	117900
#	130125
#	150750
#	165225
#	178800
#	191325
#	206700
#	221925
#
# Disc length: 3109
#
# Revision: 1
# Processed by: cddbd v1.5.1PL0 Copyright (c) Steve Scherf et al.
# Submitted via: dBpowerAMP V4.0
# Normalized: r0:TRMNUM
#
DISCID=d30c2310
DTITLE=Gail and Lindsay Hammond - Our Country Tracks
DYEAR=1900
DGENRE=Country
TTITLE0=Our Train
TTITLE1=The Slopes Of The Pinnibar
TTITLE2=Hold Tight To All Your Dreams
TTITLE3=Springtime In Gippsland
TTITLE4=Daddy's Home
TTITLE5=The Tex Morton Travelling Museum
TTITLE6=Two Old Mates And Roses
TTITLE7=Only A Penny
TTITLE8=Before I Met You
TTITLE9=Alec Campbell,The Last Anzac
TTITLE10=There's Something Amiss
TTITLE11=Each Season Changes You
TTITLE12=Waltz Back In Time
TTITLE13=She Must Have Been An Angel
TTITLE14=The Famous Snowy River
TTITLE15=Ya Lovely
EXTD=
EXTT0=
EXTT1=
EXTT2=
EXTT3=
EXTT4=
EXTT5=
EXTT6=
EXTT7=
EXTT8=
EXTT9=
EXTT10=
EXTT11=
EXTT12=
EXTT13=
EXTT14=
EXTT15=
PLAYORDER=
